<svg width="22" height="17" viewBox="0 0 22 17" fill="none" xmlns="http://www.w3.org/2000/svg">
<path d="M21.1875 4.32735L17.7829 0.922725C17.6879 0.827716 17.5751 0.752351 17.451 0.700932C17.3268 0.649514 17.1938 0.623049 17.0594 0.623049C16.925 0.623049 16.792 0.649514 16.6679 0.700932C16.5437 0.752351 16.4309 0.827716 16.3359 0.922725C16.2409 1.01773 16.1655 1.13053 16.1141 1.25466C16.0627 1.3788 16.0362 1.51185 16.0362 1.64621C16.0362 1.78057 16.0627 1.91362 16.1141 2.03776C16.1655 2.16189 16.2409 2.27468 16.3359 2.36969L17.9957 4.02945H15.0166C13.6622 4.02945 12.3632 4.5675 11.4055 5.52524C10.4477 6.48297 9.90969 7.78194 9.90969 9.13639C9.90885 9.91754 9.6097 10.6689 9.07339 11.2368C8.53707 11.8048 7.80409 12.1465 7.02427 12.192C6.77709 11.4195 6.26154 10.7609 5.57091 10.3354C4.88027 9.90997 4.06017 9.74577 3.25898 9.87253C2.45778 9.99929 1.72842 10.4086 1.20284 11.0265C0.67727 11.6444 0.390204 12.4299 0.393584 13.2411C0.396964 14.0522 0.690566 14.8354 1.22127 15.4488C1.75197 16.0623 2.48472 16.4656 3.28695 16.5856C4.08917 16.7057 4.90788 16.5347 5.59494 16.1035C6.28201 15.6723 6.79204 15.0094 7.03278 14.2348C8.35375 14.1885 9.60509 13.6309 10.5229 12.6798C11.4407 11.7286 11.9533 10.4582 11.9525 9.13639C11.9525 8.32372 12.2753 7.54434 12.8499 6.9697C13.4246 6.39506 14.204 6.07222 15.0166 6.07222H17.9957L16.3359 7.73198C16.2407 7.82687 16.1652 7.93962 16.1136 8.06378C16.062 8.18793 16.0355 8.32103 16.0355 8.45546C16.0355 8.58989 16.062 8.723 16.1136 8.84715C16.1652 8.9713 16.2407 9.08406 16.3359 9.17895C16.5287 9.36919 16.7886 9.47586 17.0594 9.47586C17.3302 9.47586 17.5901 9.36919 17.7829 9.17895L21.1875 5.77432C21.2827 5.67943 21.3583 5.56667 21.4098 5.44252C21.4614 5.31837 21.4879 5.18527 21.4879 5.05084C21.4879 4.91641 21.4614 4.7833 21.4098 4.65915C21.3583 4.535 21.2827 4.42224 21.1875 4.32735ZM3.78136 14.5838C3.51201 14.5838 3.24871 14.5039 3.02476 14.3543C2.8008 14.2046 2.62625 13.9919 2.52317 13.7431C2.4201 13.4943 2.39313 13.2204 2.44568 12.9563C2.49822 12.6921 2.62793 12.4494 2.81839 12.259C3.00884 12.0685 3.2515 11.9388 3.51568 11.8863C3.77985 11.8337 4.05367 11.8607 4.30252 11.9638C4.55136 12.0668 4.76406 12.2414 4.9137 12.4653C5.06334 12.6893 5.14321 12.9526 5.14321 13.2219C5.14321 13.5831 4.99973 13.9295 4.74433 14.1849C4.48894 14.4403 4.14255 14.5838 3.78136 14.5838Z" fill="#4D2F15"/>
</svg>
