<svg width="22" height="22" viewBox="0 0 22 22" fill="none" xmlns="http://www.w3.org/2000/svg">
<path d="M6.28512 6.28642V5.29045C6.28512 5.0104 6.43382 4.751 6.67642 4.61052C7.10717 4.36043 7.2073 3.77565 6.86604 3.40064C6.57375 3.07985 6.59677 2.5835 6.91737 2.29051C7.22318 2.01156 7.68738 2.02727 7.9835 2.30969C8.36018 2.20282 8.64224 1.87017 8.64224 1.45967C8.64224 1.33454 8.61685 1.21342 8.56789 1.0998C8.39453 0.702287 8.57703 0.239725 8.97545 0.0663639C9.37424 -0.107732 9.83552 0.0754976 10.0089 0.473919C10.1444 0.785937 10.2135 1.11751 10.2135 1.45965C10.2135 2.5095 9.55217 3.40263 8.62634 3.75922C8.68425 4.55934 8.36255 5.23053 7.85634 5.68575L7.85652 6.28641C7.85652 6.72064 7.50505 7.07212 7.07081 7.07212C6.63657 7.07212 6.2851 6.72065 6.2851 6.28641L6.28512 6.28642Z" fill="#4D2F15"/>
<path d="M0.990221 0.473701C1.16285 0.0752793 1.6232 -0.108674 2.02365 0.066146C2.42208 0.239507 2.60458 0.702256 2.43121 1.09958C2.21693 1.59502 2.47999 2.15728 3.01541 2.30946C3.31135 2.02631 3.77573 2.01096 4.08153 2.29028C4.40232 2.58329 4.42515 3.07983 4.13287 3.40041C3.79235 3.77472 3.89082 4.36004 4.32249 4.61029C4.5649 4.75113 4.71379 5.01054 4.71379 5.2904V6.28638C4.71379 6.72061 4.36231 7.07209 3.92807 7.07209C3.49384 7.07209 3.14236 6.72062 3.14236 6.28638V5.68553C2.63069 5.22573 2.31502 4.55183 2.37236 3.75901C1.0494 3.24949 0.433398 1.75448 0.990193 0.473703L0.990221 0.473701Z" fill="#4D2F15"/>
<path d="M21.2128 20.4284H20.4271L20.4273 13.3574C20.4273 12.0577 19.3701 11.0005 18.0704 11.0005H12.5707C11.2709 11.0005 10.2138 12.0577 10.2138 13.3574V20.4284H8.61789L8.24888 8.61863C8.23554 8.19445 7.88809 7.85775 7.46373 7.85775H3.53539C3.11121 7.85775 2.76357 8.19461 2.75061 8.61877L2.3816 20.4286H0.785714C0.351484 20.4286 0 20.78 0 21.2143C0 21.6485 0.351474 22 0.785714 22H21.2131C21.6473 22 21.9988 21.6485 21.9988 21.2143C21.9986 20.7799 21.6471 20.4286 21.2129 20.4286L21.2128 20.4284ZM6.70274 9.42908L6.75206 11.0005H4.24789L4.29721 9.42908H6.70274ZM3.95304 20.4284L4.19875 12.5718H6.80136L7.04706 20.4284H3.95304ZM11.7849 20.4284V13.3574C11.7849 12.9239 12.1371 12.5717 12.5706 12.5717H18.0703C18.5038 12.5717 18.856 12.9239 18.856 13.3574V20.4284H11.7849Z" fill="#4D2F15"/>
<path d="M14.9275 14.9288C14.9275 15.363 14.576 15.7145 14.1417 15.7145H13.356C12.9218 15.7145 12.5703 15.363 12.5703 14.9288C12.5703 14.4945 12.9218 14.1431 13.356 14.1431H14.1417C14.576 14.1431 14.9275 14.4945 14.9275 14.9288Z" fill="#4D2F15"/>
<path d="M18.0702 14.9288C18.0702 15.363 17.7187 15.7145 17.2844 15.7145H16.4987C16.0645 15.7145 15.713 15.363 15.713 14.9288C15.713 14.4945 16.0645 14.1431 16.4987 14.1431H17.2844C17.7187 14.1431 18.0702 14.4945 18.0702 14.9288Z" fill="#4D2F15"/>
<path d="M14.9275 18.0714C14.9275 18.5057 14.576 18.8571 14.1417 18.8571H13.356C12.9218 18.8571 12.5703 18.5057 12.5703 18.0714C12.5703 17.6372 12.9218 17.2857 13.356 17.2857H14.1417C14.576 17.2857 14.9275 17.6372 14.9275 18.0714Z" fill="#4D2F15"/>
<path d="M18.0702 18.0714C18.0702 18.5057 17.7187 18.8571 17.2844 18.8571H16.4987C16.0645 18.8571 15.713 18.5057 15.713 18.0714C15.713 17.6372 16.0645 17.2857 16.4987 17.2857H17.2844C17.7187 17.2857 18.0702 17.6372 18.0702 18.0714Z" fill="#4D2F15"/>
</svg>
