<svg width="24" height="24" viewBox="0 0 24 24" fill="none" xmlns="http://www.w3.org/2000/svg">
<path d="M10.5 4.5C10.5 5.88069 9.38073 7 8 7C6.61931 7 5.5 5.88073 5.5 4.5C5.5 3.11931 6.61927 2 8 2C9.38069 2 10.5 3.11927 10.5 4.5Z" fill="#4D2F15"/>
<path d="M10.5 12C10.5 13.3807 9.38073 14.5 8 14.5C6.61931 14.5 5.5 13.3807 5.5 12C5.5 10.6193 6.61927 9.5 8 9.5C9.38069 9.5 10.5 10.6193 10.5 12Z" fill="#4D2F15"/>
<path d="M10.5 19.5C10.5 20.8807 9.38073 22 8 22C6.61931 22 5.5 20.8807 5.5 19.5C5.5 18.1193 6.61927 17 8 17C9.38069 17 10.5 18.1193 10.5 19.5Z" fill="#4D2F15"/>
<path d="M18.5 4.5C18.5 5.88069 17.3807 7 16 7C14.6193 7 13.5 5.88073 13.5 4.5C13.5 3.11931 14.6193 2 16 2C17.3807 2 18.5 3.11927 18.5 4.5Z" fill="#4D2F15"/>
<path d="M18.5 12C18.5 13.3807 17.3807 14.5 16 14.5C14.6193 14.5 13.5 13.3807 13.5 12C13.5 10.6193 14.6193 9.5 16 9.5C17.3807 9.5 18.5 10.6193 18.5 12Z" fill="#4D2F15"/>
<path d="M18.5 19.5C18.5 20.8807 17.3807 22 16 22C14.6193 22 13.5 20.8807 13.5 19.5C13.5 18.1193 14.6193 17 16 17C17.3807 17 18.5 18.1193 18.5 19.5Z" fill="#4D2F15"/>
</svg>
