<svg width="249" height="200" viewBox="0 0 249 200" fill="none" xmlns="http://www.w3.org/2000/svg">
<g clip-path="url(#clip0_110_2000)">
<path fill-rule="evenodd" clip-rule="evenodd" d="M119.831 61.872L112.083 60.0697L116.365 41.6631L124.113 43.4657L119.831 61.872Z" fill="#DBD5D0"/>
<path fill-rule="evenodd" clip-rule="evenodd" d="M108.206 34.3053V34.305C108.872 31.4443 111.728 29.6645 114.587 30.3299L130.703 34.0788C133.566 34.7441 135.343 37.6028 134.68 40.4635C134.013 43.3242 131.154 45.104 128.295 44.4387L112.179 40.6897C109.32 40.0247 107.539 37.166 108.206 34.3053Z" fill="#DBD5D0"/>
<path fill-rule="evenodd" clip-rule="evenodd" d="M108.292 193.78L100.906 193.011L114.043 66.8438L193.99 165.662L188.219 170.332L119.569 85.4786L108.292 193.78Z" fill="#4D2F15"/>
<path fill-rule="evenodd" clip-rule="evenodd" d="M112.902 57.8846L107.95 64.1118L93.1643 52.3466L98.1162 46.1201L112.902 57.8846Z" fill="#F6F4F3"/>
<path fill-rule="evenodd" clip-rule="evenodd" d="M83.0184 56.5596C80.7199 54.7311 80.3417 51.3855 82.1693 49.087L92.4678 36.1354C94.2953 33.8369 97.6419 33.4558 99.9404 35.2847C102.239 37.1129 102.617 40.4588 100.789 42.7573L90.491 55.7089C88.6601 58.0071 85.3169 58.3885 83.0184 56.5596Z" fill="#F6F4F3"/>
<path fill-rule="evenodd" clip-rule="evenodd" d="M116.839 60.8835L109.204 63.1247L103.052 42.1568L110.683 39.916L116.839 60.8835Z" fill="#919395"/>
<path fill-rule="evenodd" clip-rule="evenodd" d="M92.8691 41.5929C92.0432 38.7747 93.6551 35.8195 96.4744 34.9923L112.348 30.3309C115.168 29.5037 118.119 31.1177 118.949 33.9359C119.775 36.7541 118.163 39.7094 115.343 40.5369L99.4694 45.1979C96.6502 46.0251 93.6949 44.4112 92.8691 41.5929Z" fill="#B8ACA1"/>
<path fill-rule="evenodd" clip-rule="evenodd" d="M190.912 98.4836C200.942 132.655 181.376 168.489 147.214 178.519C113.048 188.549 77.2238 168.978 67.1973 134.806C57.1707 100.635 76.7362 64.8013 110.899 54.7708C145.061 44.7403 180.886 64.3111 190.912 98.4836Z" fill="#D3616A"/>
<path fill-rule="evenodd" clip-rule="evenodd" d="M190.912 98.4836C200.942 132.655 181.376 168.489 147.214 178.519C113.048 188.549 77.2238 168.978 67.1973 134.806C57.1707 100.635 76.7362 64.8013 110.899 54.7708C145.061 44.7403 180.886 64.3111 190.912 98.4836Z" fill="#CE7619"/>
<path fill-rule="evenodd" clip-rule="evenodd" d="M188.136 99.2993C197.712 131.936 179.025 166.159 146.398 175.739C113.768 185.319 79.5522 166.627 69.9767 133.99C60.3979 101.353 79.0845 67.1298 111.715 57.55C144.342 47.9706 178.557 66.6621 188.136 99.2993Z" fill="#F08618"/>
<path fill-rule="evenodd" clip-rule="evenodd" d="M158.159 74.272C145.861 65.8299 130.01 62.7848 114.58 67.3148C87.3433 75.3115 71.7446 103.88 79.738 131.124C82.2222 139.583 86.6865 146.919 92.4809 152.776C105.343 165.781 124.753 171.488 143.532 165.974C170.77 157.977 186.368 129.409 178.371 102.165C174.905 90.3539 167.572 80.733 158.159 74.272Z" fill="white"/>
<path fill-rule="evenodd" clip-rule="evenodd" d="M158.159 74.2725C163.954 80.1295 168.421 87.4655 170.902 95.9249C178.899 123.169 163.297 151.737 136.063 159.734C120.634 164.264 104.779 161.219 92.481 152.777C105.343 165.781 124.753 171.488 143.532 165.974C170.77 157.977 186.368 129.409 178.372 102.165C174.906 90.3544 167.572 80.7335 158.159 74.2725Z" fill="#F0F1F1"/>
<path fill-rule="evenodd" clip-rule="evenodd" d="M189.287 69.478C197.207 55.3815 192.113 37.483 177.907 29.5002C163.705 21.5174 145.771 26.4733 137.854 40.5699L189.287 69.478Z" fill="#CE7619"/>
<path fill-rule="evenodd" clip-rule="evenodd" d="M182.043 65.0365C188.866 52.8905 184.474 37.468 172.236 30.5897C159.997 23.7114 144.544 27.9818 137.721 40.1277L182.043 65.0365Z" fill="#F08618"/>
<path fill-rule="evenodd" clip-rule="evenodd" d="M52.1891 110.075C37.9105 102.496 32.5274 84.6823 40.1626 70.2873C47.8011 55.8919 65.5656 50.3666 79.8442 57.946L52.1891 110.075Z" fill="#CE7619"/>
<path fill-rule="evenodd" clip-rule="evenodd" d="M55.9999 102.893C43.6881 96.3584 39.0447 80.9989 45.6284 68.5866C52.2155 56.1746 67.5322 51.4105 79.844 57.9454L55.9999 102.893Z" fill="#F08618"/>
<path fill-rule="evenodd" clip-rule="evenodd" d="M126.259 121.335L116.481 88.0173L123.605 85.9268L131.29 112.119L152.275 105.958L154.368 113.082L126.259 121.335Z" fill="#4D2F15"/>
<path fill-rule="evenodd" clip-rule="evenodd" d="M135.911 114.632C137.018 118.402 134.859 122.356 131.088 123.462C127.32 124.569 123.367 122.41 122.262 118.64C121.154 114.87 123.313 110.916 127.081 109.809C130.852 108.703 134.806 110.862 135.911 114.632Z" fill="#F08618"/>
<path fill-rule="evenodd" clip-rule="evenodd" d="M92.9089 127.257C93.476 129.192 92.3683 131.22 90.4346 131.787C88.5009 132.355 86.4744 131.247 85.9072 129.313C85.3401 127.379 86.4479 125.351 88.3815 124.783C90.3152 124.216 92.3417 125.323 92.9089 127.257Z" fill="#4D2F15"/>
<path fill-rule="evenodd" clip-rule="evenodd" d="M173.579 103.573C174.146 105.507 173.038 107.535 171.105 108.103C169.171 108.67 167.144 107.563 166.577 105.629C166.01 103.695 167.118 101.667 169.048 101.099C170.982 100.531 173.012 101.639 173.579 103.573Z" fill="#4D2F15"/>
<path fill-rule="evenodd" clip-rule="evenodd" d="M118.932 79.6C116.998 80.1675 114.969 79.0597 114.401 77.1257C113.834 75.1917 114.942 73.1638 116.876 72.596C118.809 72.0282 120.836 73.136 121.403 75.07C121.973 77.004 120.866 79.0322 118.932 79.6Z" fill="#4D2F15"/>
<path fill-rule="evenodd" clip-rule="evenodd" d="M142.61 160.29C140.677 160.858 138.647 159.75 138.08 157.816C137.512 155.882 138.62 153.854 140.554 153.286C142.488 152.719 144.514 153.826 145.081 155.76C145.652 157.694 144.544 159.723 142.61 160.29Z" fill="#4D2F15"/>
<path fill-rule="evenodd" clip-rule="evenodd" d="M191.748 78.9775C192.766 80.0542 193.692 81.215 194.564 82.4097C195.446 83.6017 196.259 84.8402 197.038 86.1013C198.591 88.6296 199.957 91.2747 201.154 94.0034C202.348 96.7324 203.353 99.5517 204.176 102.431C204.378 103.153 204.577 103.874 204.753 104.603L205.257 106.797C205.543 108.271 205.821 109.748 206.014 111.241L206.159 112.36C206.206 112.734 206.229 113.11 206.269 113.485C206.329 114.236 206.415 114.984 206.455 115.737L206.531 117.997C206.557 118.751 206.534 119.507 206.521 120.26C206.438 123.275 206.156 126.292 205.526 129.241L205.304 130.347C205.234 130.716 205.118 131.077 205.028 131.442C204.836 132.17 204.647 132.896 204.441 133.617C204.206 134.331 203.967 135.043 203.718 135.749L203.344 136.805L202.909 137.841C202.607 138.526 202.325 139.215 202.01 139.889C201.662 140.552 201.327 141.215 200.972 141.868C200.793 142.193 200.63 142.524 200.438 142.843L199.841 143.785C199.43 144.404 199.038 145.029 198.614 145.632C198.78 144.905 198.979 144.198 199.154 143.488L199.443 142.435L199.685 141.37C199.841 140.659 200.01 139.96 200.176 139.26L200.577 137.142L200.786 136.093L200.942 135.033L201.261 132.926C201.393 131.509 201.606 130.117 201.669 128.704C201.798 127.302 201.818 125.892 201.874 124.491C201.897 123.79 201.861 123.085 201.871 122.385L201.874 121.334L201.824 120.282C201.781 119.582 201.791 118.881 201.735 118.181L201.576 116.084C201.526 115.385 201.436 114.687 201.37 113.989C201.334 113.64 201.307 113.29 201.257 112.942L201.108 111.899C200.952 110.503 200.697 109.118 200.468 107.729L200.076 105.651L199.635 103.579C199.025 100.818 198.309 98.0707 197.509 95.3328C195.901 89.8535 193.97 84.4379 191.748 78.9775Z" fill="#DBD5D0"/>
<path fill-rule="evenodd" clip-rule="evenodd" d="M209.37 84.0029C210.159 84.713 210.859 85.5048 211.529 86.3184C212.202 87.1313 212.819 87.9837 213.413 88.8553C214.59 90.6036 215.619 92.4524 216.524 94.3671C217.42 96.2849 218.173 98.2762 218.783 100.319C219.396 102.36 219.844 104.459 220.126 106.585C220.411 108.711 220.544 110.866 220.451 113.02C220.372 115.171 220.13 117.321 219.629 119.416C219.516 119.941 219.393 120.463 219.231 120.976C219.078 121.492 218.929 122.006 218.763 122.515C218.577 123.019 218.392 123.521 218.196 124.018L217.897 124.759L217.559 125.485C217.324 125.964 217.101 126.446 216.856 126.914C216.584 127.375 216.322 127.836 216.043 128.286C215.904 128.511 215.775 128.739 215.625 128.958L215.161 129.604C214.846 130.03 214.531 130.452 214.196 130.858C214.547 128.762 214.998 126.791 215.231 124.786L215.343 124.047L215.42 123.301L215.586 121.824C215.635 120.832 215.758 119.862 215.768 118.879C215.871 116.926 215.844 114.979 215.755 113.041C215.675 111.103 215.476 109.171 215.221 107.243C214.723 103.384 213.877 99.5495 212.876 95.6985C211.867 91.8384 210.667 88.0013 209.37 84.0029Z" fill="#DBD5D0"/>
<path fill-rule="evenodd" clip-rule="evenodd" d="M53.7215 119.503C54.8061 125.296 56.1063 130.897 57.7116 136.376C58.5209 139.112 59.3998 141.81 60.3816 144.462L61.1278 146.444L61.9239 148.404C62.4811 149.697 63.0118 151 63.6353 152.26L64.0764 153.218C64.2224 153.537 64.3882 153.846 64.5441 154.16C64.8658 154.784 65.1676 155.418 65.5026 156.034L66.5043 157.884C66.8326 158.503 67.2207 159.087 67.5623 159.701L68.0897 160.611L68.6602 161.495C69.0482 162.078 69.3998 162.69 69.7978 163.267C70.6005 164.417 71.3799 165.592 72.2456 166.703C73.0615 167.857 73.9935 168.913 74.8691 170.035L76.2754 171.633L76.9786 172.442L77.7215 173.212L79.2041 174.777C79.7215 175.277 80.2456 175.773 80.7597 176.286L81.5358 177.052L82.3484 177.782C82.8824 178.284 83.4297 178.772 83.9603 179.294C83.2771 179.016 82.6137 178.703 81.9305 178.404L80.9189 177.933C80.5872 177.768 80.2721 177.578 79.9438 177.401C79.2937 177.044 78.6502 176.668 78.0035 176.297C77.3733 175.9 76.763 175.473 76.1394 175.059L75.2141 174.423L74.3252 173.738C73.7381 173.277 73.1511 172.807 72.5673 172.334C72.0035 171.839 71.4529 171.329 70.899 170.821C70.6237 170.563 70.3318 170.32 70.0731 170.049L69.2904 169.238C67.1676 167.096 65.297 164.711 63.5988 162.219C63.1809 161.593 62.753 160.968 62.3683 160.322L61.2108 158.377C60.836 157.723 60.5076 157.047 60.1527 156.382C59.9802 156.047 59.7978 155.717 59.6353 155.377L59.1544 154.357C58.5076 152.996 57.9438 151.603 57.3866 150.208L56.627 148.09C56.3816 147.382 56.1594 146.666 55.9404 145.951C55.0748 143.083 54.3982 140.168 53.9272 137.226C53.4595 134.284 53.1809 131.32 53.1212 128.355C53.0947 126.872 53.1113 125.391 53.2074 123.912C53.297 122.435 53.4463 120.958 53.7215 119.503Z" fill="#DBD5D0"/>
<path fill-rule="evenodd" clip-rule="evenodd" d="M41.612 133.258C42.6833 137.322 43.7447 141.2 44.9818 144.992C46.2223 148.774 47.5822 152.456 49.2472 155.973C50.0731 157.733 50.952 159.466 51.9304 161.14C52.9023 162.819 53.9304 164.471 55.0714 166.059C55.612 166.881 56.2389 167.631 56.8193 168.438L57.758 169.59L58.2223 170.178L58.7198 170.738C59.9968 172.301 61.4429 173.714 62.8691 175.289C62.3683 175.128 61.8741 174.942 61.3799 174.755L60.6402 174.462C60.3948 174.36 60.1659 174.236 59.9238 174.123C59.4462 173.895 58.9785 173.649 58.5009 173.407C58.0399 173.147 57.5954 172.861 57.1344 172.586L56.4578 172.158L55.8077 171.695C55.3732 171.383 54.9454 171.061 54.5175 170.737C54.1029 170.399 53.7016 170.046 53.2936 169.694C52.879 169.35 52.4943 168.977 52.1162 168.597C50.5639 167.105 49.1941 165.427 47.9669 163.661C46.7265 161.898 45.6717 160.013 44.7629 158.07C42.9354 154.186 41.7646 150.036 41.1941 145.843C40.9188 143.744 40.7862 141.632 40.8326 139.525C40.8624 138.471 40.9188 137.42 41.0482 136.372C41.1709 135.326 41.3301 134.281 41.612 133.258Z" fill="#DBD5D0"/>
<path fill-rule="evenodd" clip-rule="evenodd" d="M131.287 -6L131.499 14.4899L136.959 11.068L140.972 23.8846L141.234 3.37944L135.39 6.96086L131.287 -6Z" fill="#F39E46"/>
<path fill-rule="evenodd" clip-rule="evenodd" d="M168.445 -3.7168L152.465 9.10145L158.528 11.2849L150.926 22.3562L167.211 9.90045L160.786 7.51471L168.445 -3.7168Z" fill="#F39E46"/>
<path fill-rule="evenodd" clip-rule="evenodd" d="M35.0979 39.6497L51.612 51.7744L52.1526 45.3522L64.8094 49.8311L48.5672 37.3184L47.9271 44.1432L35.0979 39.6497Z" fill="#F39E46"/>
<path fill-rule="evenodd" clip-rule="evenodd" d="M59.2207 11.2861L59.8841 31.7664L65.2671 28.2254L69.559 40.9508L69.3699 20.445L63.6088 24.1538L59.2207 11.2861Z" fill="#F39E46"/>
<path fill-rule="evenodd" clip-rule="evenodd" d="M224.846 32.8662L209.967 46.9525L216.189 48.6314L209.522 60.2884L224.73 46.5389L218.133 44.6881L224.846 32.8662Z" fill="#F39E46"/>
<path fill-rule="evenodd" clip-rule="evenodd" d="M248.435 61.6746L228.169 58.667L230.693 64.598L217.406 66.5499L237.612 70.0278L234.992 63.6932L248.435 61.6746Z" fill="#F39E46"/>
<path fill-rule="evenodd" clip-rule="evenodd" d="M4.27856 97.624L24.4079 101.433L20.0829 106.209L31.99 112.412L11.7645 109.066L16.315 103.942L4.27856 97.624Z" fill="#F39E46"/>
<path fill-rule="evenodd" clip-rule="evenodd" d="M0 134.615L15.4229 121.13L16.5075 127.483L28.7396 121.943L13.6186 135.792L12.398 129.047L0 134.615Z" fill="#F39E46"/>
</g>
<defs>
<clipPath id="clip0_110_2000">
<rect width="248.425" height="200" fill="white"/>
</clipPath>
</defs>
</svg>
